HIERARCHY
ROOT Hips
{
    OFFSET 0.000000 0.000000 0.000000
    CHANNELS 6 Xposition Yposition Zposition Zrotation Xrotation Yrotation
    JOINT Spine
    {
        OFFSET -0.000000 7.236184 0.000000
        CHANNELS 3 Zrotation Xrotation Yrotation
        JOINT Spine1
        {
            OFFSET -0.000000 20.420147 0.000000
            CHANNELS 3 Zrotation Xrotation Yrotation
            JOINT Neck
            {
                OFFSET -0.000000 20.336288 1.848754
                CHANNELS 3 Zrotation Xrotation Yrotation
                JOINT Head
                {
                    OFFSET -0.000000 12.354461 -1.764923
                    CHANNELS 3 Zrotation Xrotation Yrotation
                    End Site
                    {
                        OFFSET -0.000000 22.061537 0.000000
                    }
                }
            }
            JOINT LeftShoulder
            {
                OFFSET 3.573296 18.396038 -0.314103
                CHANNELS 3 Zrotation Xrotation Yrotation
                JOINT LeftArm
                {
                    OFFSET 10.880760 0.000000 0.000000
                    CHANNELS 3 Zrotation Xrotation Yrotation
                    JOINT LeftForeArm
                    {
                        OFFSET 27.185530 0.000000 0.000000
                        CHANNELS 3 Zrotation Xrotation Yrotation
                        JOINT LeftHand
                        {
                            OFFSET 27.825975 0.000000 0.000000
                            CHANNELS 3 Zrotation Xrotation Yrotation
                            End Site
                            {
                                OFFSET 13.236923 0.000000 0.000000
                            }
                        }
                    }
                }
            }
            JOINT RightShoulder
            {
                OFFSET -3.474926 18.396038 -0.314103
                CHANNELS 3 Zrotation Xrotation Yrotation
                JOINT RightArm
                {
                    OFFSET -10.880760 0.000000 0.000000
                    CHANNELS 3 Zrotation Xrotation Yrotation
                    JOINT RightForeArm
                    {
                        OFFSET -27.185530 0.000000 0.000000
                        CHANNELS 3 Zrotation Xrotation Yrotation
                        JOINT RightHand
                        {
                            OFFSET -27.825975 0.000000 0.000000
                            CHANNELS 3 Zrotation Xrotation Yrotation
                            End Site
                            {
                                OFFSET -13.236923 0.000000 0.000000
                            }
                        }
                    }
                }
            }
        }
    }
    JOINT LeftUpLeg
    {
        OFFSET 8.824615 0.000000 0.000000
        CHANNELS 3 Zrotation Xrotation Yrotation
        JOINT LeftLeg
        {
            OFFSET -0.000000 -35.111282 0.000000
            CHANNELS 3 Zrotation Xrotation Yrotation
            JOINT LeftFoot
            {
                OFFSET -0.000000 -42.324711 0.000000
                CHANNELS 3 Zrotation Xrotation Yrotation
                JOINT LeftToeBase
                {
                    OFFSET -0.000000 -5.735999 13.236923
                    CHANNELS 3 Zrotation Xrotation Yrotation
                    End Site
                    {
                        OFFSET -0.000000 0.000000 3.529846
                    }
                }
            }
        }
    }
    JOINT RightUpLeg
    {
        OFFSET -8.824615 0.000000 0.000000
        CHANNELS 3 Zrotation Xrotation Yrotation
        JOINT RightLeg
        {
            OFFSET -0.000000 -35.111282 0.000000
            CHANNELS 3 Zrotation Xrotation Yrotation
            JOINT RightFoot
            {
                OFFSET -0.000000 -42.324711 0.000000
                CHANNELS 3 Zrotation Xrotation Yrotation
                JOINT RightToeBase
                {
                    OFFSET -0.000000 -5.735999 13.236923
                    CHANNELS 3 Zrotation Xrotation Yrotation
                    End Site
                    {
                        OFFSET -0.000000 0.000000 3.529846
                    }
                }
            }
        }
    }
}
MOTION
Frames:    4
Frame Time:    0.008333
-14.747131    85.603455    104.807594    1.288959    -11.860980    174.738068    -1.712807    -8.583054    0.149111    3.436729    3.112601    0.184234    3.052350    2.758445    -6.178481    13.037903    -19.684732    -2.773551    0.506091    14.343163    -0.866971    -45.179081    33.133995    -32.120850    -0.062603    -8.595701    -20.061512    22.855536    -7.896623    3.548072    7.866370    17.542999    -7.061983    50.465382    31.048128    28.125078    -3.150865    -13.554002    12.879869    -22.168062    -11.989414    -6.366520    3.395904    -19.697084    -2.108332    -0.444599    19.026991    8.645304    -1.953702    -9.104259    -13.539333    0.246399    -1.807703    -0.274031    -30.301641    -40.501377    -23.545876    19.866676    52.348980    -13.160631    17.694319    2.388727    -4.881655    1.049178    -7.626436    -1.147550    
-14.992338    85.626045    104.905846    1.301957    -11.885840    173.976151    -1.506897    -8.360634    0.081646    3.560663    3.097960    0.095430    3.097682    2.708363    -6.008720    12.622488    -19.801798    -2.720390    0.493697    14.341403    -0.820670    -45.187336    33.040108    -31.822138    0.018536    -8.819741    -20.473412    22.974550    -8.092093    3.602217    7.834371    17.544209    -7.023101    50.547302    30.515352    27.985853    -3.173364    -13.720663    12.747851    -22.393602    -12.118647    -6.504907    3.503666    -19.705315    -1.784452    -0.573008    19.072023    9.097399    -1.911250    -9.129579    -13.542236    0.234450    -1.874919    -0.260774    -31.701544    -42.065907    -25.272346    21.317101    54.891590    -14.097012    17.434454    2.184650    -5.103381    1.064973    -7.508430    -1.164610    
-15.247321    85.641228    105.007813    1.316635    -11.913607    173.202545    -1.285834    -8.124635    0.010025    3.687171    3.089103    0.001918    3.142584    2.662236    -5.836062    12.185829    -19.948338    -2.668485    0.482353    14.341103    -0.776605    -45.220390    32.936646    -31.521421    0.107571    -9.025509    -20.872360    23.090363    -8.268633    3.649490    7.799912    17.549389    -6.990284    50.617172    29.951155    27.836723    -3.188797    -13.848901    12.613103    -22.558661    -12.214885    -6.634412    3.611180    -19.758038    -1.470850    -0.710129    19.183428    9.587261    -1.871770    -9.171728    -13.562463    0.213203    -1.932138    -0.237167    -33.304905    -43.692783    -27.135530    23.150539    57.535378    -15.387133    17.139114    1.954113    -5.342267    1.074978    -7.376453    -1.175306    
-15.455680    85.645088    105.090584    1.329721    -11.936701    172.586349    -1.098584    -7.927188    -0.048150    3.787933    3.086902    -0.073775    3.173466    2.630431    -5.700706    11.833435    -20.089045    -2.628454    0.475483    14.342431    -0.745722    -45.271519    32.845097    -31.288765    0.184622    -9.166639    -21.166750    23.177031    -8.385973    3.682517    7.769907    17.557573    -6.971512    50.660801    29.487022    27.711975    -3.192554    -13.908751    12.503299    -22.624371    -12.257150    -6.719715    3.694160    -19.842478    -1.236544    -0.824768    19.338591    10.006154    -1.841244    -9.222648    -13.592630    0.187433    -1.965195    -0.208513    -34.748810    -45.016491    -28.712933    24.991713    59.678276    -16.773155    16.880013    1.755463    -5.537291    1.077245    -7.266360    -1.177581    
